<svg  xmlns="http://www.w3.org/2000/svg" viewBox="0 0 500 242.38">


<path fill="currentColor"

d="M471.16,0l-8.31,137.49L436.79,0H395.66L402,136.29,349.46,0H265.2L242.4,53.82,219.78,0H61.59l1.55,73.16H33.6L25.06,0H0V242.38H53.35L36.56,98.54l26.95-8.08,3.23,151.92h106L160.43,91.76l25.23,7.56,1.43-26.16H158.91l-2.79-34.3,41.79,6.9L188.3,242.38h48.45L224,59.74l17.1,37.71,23.81-35.58-.94,180.51h50.5L297.55,90.48l33.93,10.17,3,141.73h45.3L359.77,82.28l47.14,160.1h24.72L434.7,84.2l21.82,158.18H500V0ZM91.58,215.72,100,29.6l16.49,2.72,27.81,175.44ZM299.06,73.16h-3.43l-3-27,37.42-11.61.83,38.58v0Z"/></svg>