<svg id="Layer_1" 
data-name="Layer 1" 
xmlns="http://www.w3.org/2000/svg" 
viewBox="0 0 76.73 37.2">
<path fill="currentColor" d="M72.31,0,71,21.1,67,0H60.72l1,20.92L53.63,0H40.7L37.2,8.26,33.73,0H9.45l.24,11.23H5.16L3.85,0H0V37.2H8.19L5.61,15.12l4.14-1.24.49,23.32H26.5L24.62,14.08l3.87,1.16.22-4H24.39L24,6,30.37,7,28.9,37.2h7.43l-2-28L37,15,40.65,9.5,40.5,37.2h7.75L45.66,13.89l5.21,1.56.47,21.75h6.95L55.21,12.63,62.45,37.2h3.79l.47-24.28L70.06,37.2h6.67V0ZM14.05,33.11,15.34,4.54,17.87,5l4.27,26.92ZM45.9,11.23h-.53l-.46-4.14,5.74-1.78.13,5.92H45.9Z"/>
</svg>