<svg id="Default" xmlns="http://www.w3.org/2000/svg" viewBox="0 0 155.8 37.2"><path d="M57.37,7.47,56.8,26.78,49.21,0H36.59l3.87,33L32,31.06,33.32,0H0V20.27l11.05-2.46L12.29,30,0,27.35V37.2H15.13l1.21-23.89-10.85.17L4.76,3.29,18.93,5.9,19,37.2h8.3L22.56,6.57l5.4,1L29,37.2H76.73V7.47ZM43.67,32.71,42.88,7,53.71,29.27Zm16.62.86,2.29-19.42,5.1-1.86,4.1,19.27Z" fill="#b2b2b2"/><path d="M151.38,0,150.1,21.1,146.1,0h-6.31l1,20.92L132.7,0H119.77l-3.5,8.26L112.8,0H88.52l.24,11.23H84.23L82.92,0H79.07V37.2h8.19L84.68,15.12l4.14-1.24.49,23.32h16.27l-1.89-23.12,3.87,1.16.22-4h-4.32L103,6,109.44,7,108,37.2h7.43l-2-28L116.07,15l3.65-5.46-.14,27.7h7.74l-2.58-23.31,5.2,1.56.47,21.75h7l-3.08-24.57,7.24,24.57h3.79l.47-24.28,3.35,24.28h6.67V0ZM93.12,33.11l1.3-28.57L97,5l4.26,26.92ZM125,11.23h-.53L124,7.09l5.74-1.78.13,5.92H125Z" fill="#b2b2b2"/><polygon points="57.59 0 76.73 0 76.73 2.73 57.41 6.25 57.59 0" fill="#b2b2b2"/></svg>