<svg  xmlns="http://www.w3.org/2000/svg" viewBox="0 0 500 242.38">

<path fill="currentColor"

d="M373.83,48.7,370.1,174.53,320.69,0H238.45l25.19,214.68-55.11-12.29L217.13,0H0V132.07l72-16,8.11,79.25L0,178.19v64.19H98.58l7.9-155.64L35.79,87.81,31,21.43l92.3,17,.36,203.93h54.09L147,42.82l35.23,6.5,6.4,193.06H500V48.7ZM284.56,213.17,279.43,45.5,350,190.74Zm108.26,5.59L407.76,92.17,441,80.08l26.7,125.57Z"/>


<polygon fill="currentColor" points="375.27 0 500 0 500 17.81 374.06 40.73 375.27 0"/></svg>